<svg width="12" height="12" viewBox="0 0 12 12" fill="none" xmlns="http://www.w3.org/2000/svg">
<path d="M6.00004 2.50003C6.00063 2.30004 5.96122 2.10196 5.88413 1.91742C5.80705 1.73289 5.69384 1.56564 5.55117 1.4255C5.4085 1.28536 5.23925 1.17516 5.05337 1.10139C4.86748 1.02762 4.66873 0.991764 4.46878 0.995931C4.26884 1.0001 4.07175 1.04421 3.88911 1.12566C3.70646 1.20711 3.54195 1.32426 3.40524 1.47023C3.26853 1.61619 3.16239 1.78802 3.09306 1.9756C3.02373 2.16319 2.99262 2.36274 3.00154 2.56253C2.70764 2.63809 2.43479 2.77955 2.20365 2.97618C1.97252 3.17281 1.78916 3.41946 1.66746 3.69745C1.54576 3.97544 1.48892 4.27747 1.50123 4.58068C1.51355 4.88389 1.5947 5.18032 1.73854 5.44753C1.48563 5.65299 1.28675 5.91714 1.15921 6.21699C1.03166 6.51685 0.979316 6.84332 1.00672 7.16802C1.03412 7.49272 1.14045 7.8058 1.31644 8.08004C1.49243 8.35427 1.73277 8.58135 2.01654 8.74153C1.9815 9.01264 2.00241 9.28807 2.07798 9.55079C2.15355 9.81351 2.28219 10.0579 2.45593 10.269C2.62967 10.4801 2.84484 10.6533 3.08815 10.7779C3.33145 10.9025 3.59773 10.976 3.87053 10.9937C4.14333 11.0114 4.41686 10.973 4.67423 10.8808C4.9316 10.7887 5.16735 10.6447 5.36692 10.4579C5.56648 10.2711 5.72562 10.0453 5.83452 9.79456C5.94341 9.54381 5.99975 9.2734 6.00004 9.00002V2.50003Z" stroke="#00BC7D" stroke-linecap="round" stroke-linejoin="round"/>
<path d="M6.00001 2.50003C5.99942 2.30004 6.03882 2.10196 6.11591 1.91742C6.19299 1.73289 6.3062 1.56564 6.44887 1.4255C6.59154 1.28536 6.7608 1.17516 6.94668 1.10139C7.13256 1.02762 7.33132 0.991764 7.53126 0.995931C7.7312 1.0001 7.92829 1.04421 8.11094 1.12566C8.29358 1.20711 8.4581 1.32426 8.59481 1.47023C8.73151 1.61619 8.83765 1.78802 8.90698 1.9756C8.97631 2.16319 9.00743 2.36274 8.99851 2.56253C9.29241 2.63809 9.56526 2.77955 9.79639 2.97618C10.0275 3.17281 10.2109 3.41946 10.3326 3.69745C10.4543 3.97544 10.5111 4.27747 10.4988 4.58068C10.4865 4.88389 10.4053 5.18032 10.2615 5.44753C10.5144 5.65299 10.7133 5.91714 10.8408 6.21699C10.9684 6.51685 11.0207 6.84332 10.9933 7.16802C10.9659 7.49272 10.8596 7.8058 10.6836 8.08004C10.5076 8.35427 10.2673 8.58135 9.98351 8.74153C10.0185 9.01264 9.99764 9.28807 9.92206 9.55079C9.84649 9.81351 9.71786 10.0579 9.54411 10.269C9.37037 10.4801 9.1552 10.6533 8.9119 10.7779C8.66859 10.9025 8.40232 10.976 8.12952 10.9937C7.85672 11.0114 7.58319 10.973 7.32581 10.8808C7.06844 10.7887 6.83269 10.6447 6.63313 10.4579C6.43356 10.2711 6.27442 10.0453 6.16552 9.79456C6.05663 9.54381 6.0003 9.2734 6.00001 9.00002V2.50003Z" stroke="#00BC7D" stroke-linecap="round" stroke-linejoin="round"/>
<path d="M7.5 6.5C7.08022 6.35233 6.71366 6.0835 6.44666 5.7275C6.17967 5.37151 6.02423 4.94433 6 4.5C5.97577 4.94433 5.82033 5.37151 5.55334 5.7275C5.28634 6.0835 4.91978 6.35233 4.5 6.5" stroke="#00BC7D" stroke-linecap="round" stroke-linejoin="round"/>
<path d="M8.79956 3.25C8.92057 3.04029 8.98902 2.80441 8.99906 2.5625" stroke="#00BC7D" stroke-linecap="round" stroke-linejoin="round"/>
<path d="M3.00146 2.5625C3.01135 2.80437 3.07963 3.04025 3.20046 3.25" stroke="#00BC7D" stroke-linecap="round" stroke-linejoin="round"/>
<path d="M1.73853 5.448C1.83 5.3735 1.92788 5.30724 2.03103 5.25" stroke="#00BC7D" stroke-linecap="round" stroke-linejoin="round"/>
<path d="M9.96899 5.25C10.0721 5.30724 10.17 5.3735 10.2615 5.448" stroke="#00BC7D" stroke-linecap="round" stroke-linejoin="round"/>
<path d="M2.99998 9C2.65539 9.00017 2.31661 8.91129 2.01648 8.742" stroke="#00BC7D" stroke-linecap="round" stroke-linejoin="round"/>
<path d="M9.9835 8.742C9.68337 8.91129 9.34459 9.00017 9 9" stroke="#00BC7D" stroke-linecap="round" stroke-linejoin="round"/>
</svg>
