<svg width="11" height="11" viewBox="0 0 11 11" fill="none" xmlns="http://www.w3.org/2000/svg">
<g clip-path="url(#clip0_6_27)">
<path d="M10.0834 5.50001H8.94669C8.74638 5.49958 8.55145 5.56477 8.3917 5.68562C8.23195 5.80646 8.11619 5.9763 8.0621 6.16917L6.98502 10.0008C6.97808 10.0246 6.9636 10.0455 6.94377 10.0604C6.92394 10.0753 6.89981 10.0833 6.87502 10.0833C6.85023 10.0833 6.8261 10.0753 6.80627 10.0604C6.78644 10.0455 6.77196 10.0246 6.76502 10.0008L4.23502 0.999172C4.22808 0.975371 4.2136 0.954464 4.19377 0.939588C4.17394 0.924713 4.14981 0.916672 4.12502 0.916672C4.10023 0.916672 4.0761 0.924713 4.05627 0.939588C4.03644 0.954464 4.02196 0.975371 4.01502 0.999172L2.93794 4.83084C2.88407 5.02295 2.76899 5.19224 2.61017 5.31301C2.45135 5.43378 2.25746 5.49943 2.05794 5.50001H0.916687" stroke="currentColor" stroke-width="0.916667" stroke-linecap="round" stroke-linejoin="round"/>
</g>
<defs>
<clipPath id="clip0_6_27">
<rect width="11" height="11" fill="white"/>
</clipPath>
</defs>
</svg>
