<svg width="11" height="11" viewBox="0 0 11 11" fill="none" xmlns="http://www.w3.org/2000/svg">
<g clip-path="url(#clip0_6_72)">
<path d="M4.58331 9.16667C4.58327 9.25184 4.60696 9.33534 4.65173 9.4078C4.6965 9.48025 4.76058 9.5388 4.83677 9.57688L5.75344 10.0352C5.82333 10.0701 5.90099 10.0866 5.97905 10.0831C6.0571 10.0795 6.13296 10.0561 6.19941 10.015C6.26586 9.97391 6.3207 9.9165 6.35872 9.84824C6.39674 9.77998 6.41668 9.70313 6.41664 9.625V6.41667C6.41675 6.18951 6.50119 5.97048 6.6536 5.80204L9.96414 2.14042C10.0235 2.07467 10.0625 1.99315 10.0765 1.9057C10.0905 1.81825 10.0788 1.72862 10.0429 1.64765C10.0071 1.56668 9.94849 1.49784 9.87431 1.44946C9.80014 1.40107 9.71354 1.37521 9.62498 1.375H1.37498C1.28634 1.37503 1.19961 1.40077 1.1253 1.44908C1.05099 1.4974 0.992282 1.56623 0.956292 1.64723C0.920301 1.72824 0.908571 1.81794 0.922522 1.90547C0.936473 1.993 0.975506 2.07461 1.03489 2.14042L4.34635 5.80204C4.49876 5.97048 4.58321 6.18951 4.58331 6.41667V9.16667Z" stroke="#3F3F46" stroke-width="0.916667" stroke-linecap="round" stroke-linejoin="round"/>
</g>
<defs>
<clipPath id="clip0_6_72">
<rect width="11" height="11" fill="white"/>
</clipPath>
</defs>
</svg>
