<svg width="11" height="11" viewBox="0 0 11 11" fill="none" xmlns="http://www.w3.org/2000/svg">
<g clip-path="url(#clip0_6_44)">
<path d="M5.49996 10.0833C8.03126 10.0833 10.0833 8.03131 10.0833 5.50001C10.0833 2.9687 8.03126 0.916672 5.49996 0.916672C2.96865 0.916672 0.916626 2.9687 0.916626 5.50001C0.916626 8.03131 2.96865 10.0833 5.49996 10.0833Z" stroke="#3F3F46" stroke-width="0.916667" stroke-linecap="round" stroke-linejoin="round"/>
<path d="M5.5 8.25C7.01878 8.25 8.25 7.01878 8.25 5.5C8.25 3.98122 7.01878 2.75 5.5 2.75C3.98122 2.75 2.75 3.98122 2.75 5.5C2.75 7.01878 3.98122 8.25 5.5 8.25Z" stroke="#3F3F46" stroke-width="0.916667" stroke-linecap="round" stroke-linejoin="round"/>
<path d="M5.50004 6.41666C6.0063 6.41666 6.41671 6.00626 6.41671 5.49999C6.41671 4.99373 6.0063 4.58333 5.50004 4.58333C4.99378 4.58333 4.58337 4.99373 4.58337 5.49999C4.58337 6.00626 4.99378 6.41666 5.50004 6.41666Z" stroke="#3F3F46" stroke-width="0.916667" stroke-linecap="round" stroke-linejoin="round"/>
</g>
<defs>
<clipPath id="clip0_6_44">
<rect width="11" height="11" fill="white"/>
</clipPath>
</defs>
</svg>
