<svg width="11" height="12" viewBox="0 0 11 12" fill="none" xmlns="http://www.w3.org/2000/svg">
<path d="M1.08519 7.04308C0.982683 7.04343 0.882186 7.01469 0.795369 6.96019C0.708552 6.9057 0.638979 6.82769 0.594733 6.73523C0.550488 6.64276 0.533386 6.53965 0.545415 6.43785C0.557443 6.33606 0.598108 6.23976 0.662686 6.16016L6.02519 0.635162C6.06541 0.588731 6.12023 0.557355 6.18063 0.546183C6.24104 0.535012 6.30345 0.54471 6.35762 0.573685C6.41179 0.602659 6.4545 0.649189 6.47874 0.705637C6.50298 0.762084 6.50731 0.825096 6.49102 0.884328L5.45102 4.14516C5.42035 4.22724 5.41005 4.31553 5.42101 4.40246C5.43196 4.48939 5.46383 4.57236 5.5139 4.64427C5.56397 4.71617 5.63073 4.77486 5.70846 4.81529C5.78619 4.85572 5.87257 4.8767 5.96019 4.87641H9.75185C9.85435 4.87606 9.95485 4.9048 10.0417 4.9593C10.1285 5.01379 10.1981 5.0918 10.2423 5.18426C10.2866 5.27673 10.3037 5.37984 10.2916 5.48164C10.2796 5.58343 10.2389 5.67973 10.1744 5.75933L4.81185 11.2843C4.77163 11.3308 4.71681 11.3621 4.6564 11.3733C4.596 11.3845 4.53359 11.3748 4.47942 11.3458C4.42525 11.3168 4.38254 11.2703 4.3583 11.2139C4.33406 11.1574 4.32973 11.0944 4.34602 11.0352L5.38602 7.77433C5.41669 7.69225 5.42698 7.60396 5.41603 7.51703C5.40508 7.4301 5.3732 7.34713 5.32314 7.27522C5.27307 7.20332 5.20631 7.14463 5.12858 7.1042C5.05085 7.06377 4.96447 7.04279 4.87685 7.04308H1.08519Z" stroke="currentColor" stroke-width="1.08333" stroke-linecap="round" stroke-linejoin="round"/>
</svg>
